<?xml version="1.0" encoding="UTF-8"?><svg id="Layer_1" xmlns="http://www.w3.org/2000/svg" viewBox="0 0 1450.16 537.03"><defs><style>.cls-1{fill:#fff;stroke-width:0px;}</style></defs><path class="cls-1" d="M220.63,40.68c-98.03,0-177.49,79.47-177.49,177.49,0,91.85,69.77,167.4,159.2,176.56v-160.74h18.7v-17.83h-17.83v-17.83h17.83v-17.83h17.83v17.83h-17.83v17.83h17.83v17.83h-17.83v17.83h17.88v142.92c89.43-9.15,159.21-84.71,159.21-176.56,0-98.03-79.47-177.49-177.49-177.49ZM203.21,113.56c-49.91,8.33-88.08,51.82-88.08,104.05,0,43.5,26.5,80.87,64.17,96.97v35.84c-56.64-17.66-97.93-70.43-97.93-132.81,0-70.88,53.24-129.57,121.83-138.16v34.12ZM261.94,350.42v-35.84c37.68-16.1,64.18-53.47,64.18-96.97,0-51.95-37.75-95.25-87.26-103.91v-34.14c68.2,8.96,121.02,67.46,121.02,138.06,0,62.39-41.3,115.16-97.94,132.81Z"/><path class="cls-1" d="M425.53,387.18V56.68h44.56c69.16,92.37,194.96,252.05,213.06,285.01h.93c-2.79-45.49-2.32-95.16-2.32-148.54V56.68h35.28v330.5h-42.71c-53.85-70.56-190.32-252.98-215.38-291.51h-.93c2.78,42.71,2.78,89.59,2.78,148.08v143.43h-35.28Z"/><path class="cls-1" d="M904.57,387.18v-128.12c0-2.79-.93-5.11-3.25-7.43l-138.79-194.96h44.56c40.38,58.02,102.58,142.51,117.44,168.96,16.25-26.92,75.2-110.94,116.05-168.96h42.24l-138.79,195.42c-1.39,2.32-2.32,3.71-2.32,7.89v127.19h-37.14Z"/><path class="cls-1" d="M1347.86,387.18l-113.73-143.43h-1.39l-110.01,143.43h-43.63l132.29-169.89-126.26-160.61h45.49l104.91,135.08.46-.46,106.3-134.61h43.63l-129.04,160.61,136.47,169.89h-45.49Z"/><path class="cls-1" d="M92.51,487.83v-48.98h10.25v48.98h-10.25Z"/><path class="cls-1" d="M184.17,487.83v-48.98h8.55l22.54,30.52h.61v-30.52h9.81v48.98h-8.49l-22.61-30.65h-.61v30.65h-9.81Z"/><path class="cls-1" d="M318.97,487.83v-40.23h-14.7v-8.76h39.65v8.76h-14.7v40.23h-10.25Z"/><path class="cls-1" d="M454.95,487.83h-32.45v-48.98h32.45v8.76h-22.2v11.44h20.94v8.11h-20.94v11.92h22.2v8.76Z"/><path class="cls-1" d="M576.8,476.69c-1.01,2.63-2.45,4.85-4.33,6.69-1.88,1.83-4.16,3.24-6.84,4.23s-5.7,1.48-9.05,1.48c-3.64,0-6.91-.59-9.81-1.78-2.9-1.19-5.36-2.89-7.38-5.11-2.03-2.22-3.58-4.92-4.67-8.11-1.09-3.19-1.63-6.79-1.63-10.79s.54-7.5,1.63-10.68,2.64-5.88,4.65-8.1c2.01-2.22,4.45-3.93,7.32-5.13,2.86-1.2,6.08-1.8,9.66-1.8,2.9,0,5.58.4,8.04,1.21,2.47.8,4.64,1.94,6.52,3.41,1.88,1.47,3.42,3.25,4.62,5.33s1.98,4.39,2.34,6.92h-10.18c-.77-2.49-2.13-4.42-4.09-5.79-1.96-1.37-4.37-2.05-7.25-2.05-1.97,0-3.75.38-5.33,1.14-1.58.76-2.92,1.85-4.02,3.28s-1.94,3.16-2.53,5.21c-.59,2.05-.88,4.36-.88,6.94s.3,4.98.92,7.06,1.49,3.85,2.63,5.31,2.53,2.57,4.16,3.34c1.63.77,3.45,1.15,5.47,1.15,1.67,0,3.21-.24,4.62-.71,1.4-.48,2.61-1.14,3.62-2s1.8-1.9,2.39-3.12c.59-1.22.9-2.57.95-4.04l.03-.88h-10.62v-7.71h20.57v6.25c0,3.28-.5,6.23-1.51,8.86Z"/><path class="cls-1" d="M667.9,487.83h-10.25v-48.98h20.57c2.69,0,5.11.36,7.26,1.09,2.15.72,3.97,1.76,5.46,3.12,1.49,1.36,2.64,3,3.45,4.94.8,1.94,1.21,4.12,1.21,6.57,0,1.56-.2,3.06-.59,4.5-.4,1.44-.97,2.76-1.73,3.97-.76,1.21-1.69,2.28-2.8,3.21-1.11.93-2.37,1.67-3.77,2.24l10.32,19.35h-11.61l-9.13-17.75h-8.38v17.75ZM667.9,462.2h9c2.6,0,4.62-.66,6.04-1.97,1.43-1.31,2.14-3.16,2.14-5.53,0-1.15-.19-2.2-.58-3.14-.38-.94-.93-1.74-1.65-2.39-.71-.66-1.58-1.16-2.61-1.51-1.03-.35-2.18-.53-3.45-.53h-8.89v15.07Z"/><path class="cls-1" d="M803.21,476.15h-17.21l-3.77,11.68h-10.29l17.01-48.98h12.05l17.01,48.98h-11.1l-3.7-11.68ZM788.2,468.24h12.83l-6.08-19.21h-.61l-6.14,19.21Z"/><path class="cls-1" d="M907.76,487.83v-40.23h-14.7v-8.76h39.65v8.76h-14.7v40.23h-10.25Z"/><path class="cls-1" d="M1011.3,487.83v-48.98h10.25v48.98h-10.25Z"/><path class="cls-1" d="M1124.37,437.59c3.62,0,6.88.6,9.78,1.8,2.9,1.2,5.36,2.91,7.4,5.13,2.04,2.22,3.6,4.92,4.7,8.1,1.1,3.18,1.65,6.75,1.65,10.71s-.54,7.56-1.63,10.74c-1.09,3.18-2.65,5.88-4.68,8.1s-4.51,3.93-7.42,5.13c-2.91,1.2-6.17,1.8-9.79,1.8s-6.92-.6-9.83-1.8c-2.91-1.2-5.38-2.91-7.42-5.13-2.04-2.22-3.6-4.92-4.7-8.1-1.1-3.18-1.65-6.76-1.65-10.74s.55-7.53,1.66-10.71c1.11-3.18,2.69-5.88,4.74-8.11,2.05-2.23,4.53-3.94,7.43-5.13s6.16-1.78,9.76-1.78ZM1124.37,446.58c-1.99,0-3.79.39-5.4,1.17-1.61.78-2.98,1.9-4.12,3.34-1.14,1.45-2.03,3.21-2.65,5.28-.62,2.07-.93,4.38-.93,6.94s.3,4.87.92,6.92,1.48,3.82,2.61,5.28c1.13,1.46,2.51,2.59,4.12,3.38s3.43,1.19,5.45,1.19,3.79-.4,5.4-1.19c1.61-.79,2.98-1.92,4.12-3.38,1.14-1.46,2.02-3.22,2.63-5.28.61-2.06.92-4.37.92-6.92s-.31-4.87-.92-6.94c-.61-2.07-1.49-3.83-2.63-5.28-1.14-1.45-2.52-2.56-4.12-3.34-1.61-.78-3.41-1.17-5.4-1.17Z"/><path class="cls-1" d="M1227.13,487.83v-48.98h8.55l22.54,30.52h.61v-30.52h9.81v48.98h-8.49l-22.61-30.65h-.61v30.65h-9.81Z"/><path class="cls-1" d="M1357.75,474.21c.11,1,.44,1.9.98,2.7.54.8,1.26,1.49,2.16,2.05.89.57,1.94,1,3.14,1.31,1.2.31,2.52.46,3.97.46,1.33,0,2.56-.15,3.67-.46,1.11-.31,2.06-.74,2.87-1.29.8-.55,1.43-1.22,1.88-1.99.45-.77.68-1.62.68-2.55,0-.77-.16-1.47-.48-2.1-.32-.63-.81-1.2-1.49-1.7-.68-.5-1.56-.94-2.63-1.34-1.08-.4-2.36-.75-3.85-1.07l-6.38-1.36c-8.87-1.86-13.31-6.52-13.31-13.99,0-2.31.45-4.4,1.34-6.28.89-1.88,2.16-3.49,3.79-4.84,1.63-1.35,3.6-2.38,5.91-3.11,2.31-.72,4.88-1.09,7.71-1.09s5.17.36,7.43,1.09c2.26.72,4.22,1.74,5.87,3.04,1.65,1.3,2.95,2.86,3.9,4.67.95,1.81,1.46,3.8,1.53,5.97h-9.64c-.11-.97-.42-1.86-.92-2.65s-1.14-1.47-1.92-2.04c-.78-.57-1.7-1-2.75-1.31-1.05-.31-2.2-.46-3.45-.46s-2.46.14-3.5.42-1.93.69-2.68,1.22c-.75.53-1.32,1.18-1.73,1.94s-.61,1.6-.61,2.53c0,1.52.63,2.74,1.88,3.67,1.26.93,3.32,1.7,6.19,2.31l5.91,1.26c2.47.52,4.59,1.18,6.36,1.99,1.78.8,3.24,1.77,4.38,2.9,1.14,1.13,1.99,2.44,2.53,3.94.54,1.49.82,3.19.82,5.09,0,2.47-.46,4.68-1.38,6.65-.92,1.97-2.24,3.64-3.96,5.01s-3.8,2.42-6.25,3.16c-2.44.74-5.21,1.1-8.28,1.1-2.92,0-5.57-.34-7.94-1.04-2.38-.69-4.41-1.68-6.11-2.97s-3.03-2.85-3.99-4.68-1.49-3.89-1.58-6.18h9.91Z"/></svg>